<svg xmlns="http://www.w3.org/2000/svg" xmlns:xlink="http://www.w3.org/1999/xlink" viewBox="0 0 374.46121 241.93662"><defs><style>.cls-1,.cls-10,.cls-11,.cls-5{fill:#fff;}.cls-1,.cls-13,.cls-2,.cls-24,.cls-25,.cls-3,.cls-4,.cls-5,.cls-6,.cls-7{stroke:#2481d7;}.cls-1,.cls-10,.cls-13,.cls-2,.cls-24,.cls-25,.cls-29,.cls-3,.cls-33,.cls-36,.cls-37,.cls-4,.cls-5,.cls-6,.cls-7,.cls-9{stroke-miterlimit:10;}.cls-1,.cls-13,.cls-2,.cls-4{stroke-width:4px;}.cls-14,.cls-2,.cls-36,.cls-6{fill:#5ba1e1;}.cls-19,.cls-25,.cls-3,.cls-4{fill:#91c0eb;}.cls-10,.cls-24,.cls-25,.cls-29,.cls-3,.cls-33,.cls-36,.cls-37,.cls-5,.cls-6,.cls-7,.cls-9{stroke-width:2px;}.cls-30,.cls-7{fill:#c8dff5;}.cls-8{isolation:isolate;}.cls-13,.cls-24,.cls-29,.cls-33,.cls-37,.cls-9{fill:none;}.cls-10,.cls-37,.cls-9{stroke:#c8dff5;}.cls-12{clip-path:url(#clip-path);}.cls-15{clip-path:url(#clip-path-2);}.cls-16{clip-path:url(#clip-path-3);}.cls-17{clip-path:url(#clip-path-4);}.cls-18,.cls-23{fill:#2481d7;}.cls-18,.cls-22,.cls-25{opacity:0.25;}.cls-20{clip-path:url(#clip-path-5);}.cls-21{clip-path:url(#clip-path-6);}.cls-26{clip-path:url(#clip-path-7);}.cls-27{clip-path:url(#clip-path-8);}.cls-28,.cls-29,.cls-33{opacity:0.5;}.cls-28{mix-blend-mode:multiply;}.cls-29,.cls-36{stroke:#91c0eb;}.cls-31{clip-path:url(#clip-path-9);}.cls-32{clip-path:url(#clip-path-10);}.cls-33{stroke:#5ba1e1;}.cls-34{clip-path:url(#clip-path-11);}.cls-35{clip-path:url(#clip-path-12);}.cls-37{stroke-dasharray:4;}</style><clipPath id="clip-path"><polygon id="_Clipping_Path_" data-name="&lt;Clipping Path&gt;" class="cls-1" points="34.777 218.508 90.502 156.653 302.737 156.653 358.462 218.508 34.777 218.508"/></clipPath><clipPath id="clip-path-2"><polygon id="_Clipping_Path_2" data-name="&lt;Clipping Path&gt;" class="cls-2" points="51.982 161.687 38.048 174.687 38.048 218.52 66.928 218.52 78.172 201.687 78.172 161.687 51.982 161.687"/></clipPath><clipPath id="clip-path-3"><polygon id="_Clipping_Path_3" data-name="&lt;Clipping Path&gt;" class="cls-2" points="90.35 108.687 78.559 121.687 78.559 201.687 106.367 201.687 115.468 185.687 115.468 108.687 90.35 108.687"/></clipPath><clipPath id="clip-path-4"><polygon id="_Clipping_Path_4" data-name="&lt;Clipping Path&gt;" class="cls-2" points="301.548 58.687 313.338 71.687 313.338 201.687 285.53 201.687 276.43 185.687 276.43 58.687 301.548 58.687"/></clipPath><clipPath id="clip-path-5"><circle id="_Ellipse_" data-name="&lt;Ellipse&gt;" class="cls-4" cx="196.61955" cy="109.34142" r="77.8452"/></clipPath><clipPath id="clip-path-6"><circle id="_Ellipse_2" data-name="&lt;Ellipse&gt;" class="cls-5" cx="196.61955" cy="109.34142" r="64.8452"/></clipPath><clipPath id="clip-path-7"><rect id="_Rectangle_" data-name="&lt;Rectangle&gt;" class="cls-4" x="181.07909" y="12.85329" width="31.16667" height="10.33333"/></clipPath><clipPath id="clip-path-8"><path id="_Clipping_Path_5" data-name="&lt;Clipping Path&gt;" class="cls-6" d="M172.4114,70.30485l7.95868,12.57159a30.95239,30.95239,0,0,0-14.87653,26.465H150.61226A45.81748,45.81748,0,0,1,172.4114,70.30485Z"/></clipPath><clipPath id="clip-path-9"><path id="_Clipping_Path_6" data-name="&lt;Clipping Path&gt;" class="cls-7" d="M242.31722,109.34141H227.43593A30.93785,30.93785,0,0,0,213.29964,83.351l7.67914-12.75079A45.80753,45.80753,0,0,1,242.31722,109.34141Z"/></clipPath><clipPath id="clip-path-10"><path id="_Clipping_Path_7" data-name="&lt;Clipping Path&gt;" class="cls-3" d="M196.46474,63.48893a45.62107,45.62107,0,0,1,24.514,7.11127L213.29964,83.351a30.96753,30.96753,0,0,0-32.92957-.47455L172.4114,70.30485A45.629,45.629,0,0,1,196.46474,63.48893Z"/></clipPath><clipPath id="clip-path-11"><circle id="_Ellipse_3" data-name="&lt;Ellipse&gt;" class="cls-3" cx="161.50903" cy="131.06162" r="13.77083"/></clipPath><clipPath id="clip-path-12"><circle id="_Ellipse_4" data-name="&lt;Ellipse&gt;" class="cls-3" cx="233.38419" cy="131.06162" r="13.77083"/></clipPath></defs><title>homepage-illos-final</title><g class="cls-8"><g id="Layer_1" data-name="Layer 1"><polyline class="cls-9" points="322.312 169.234 328.345 169.234 328.345 54.517 322 54.517"/><path class="cls-10" d="M288.37109,96.16365c16.57789,0,18.85925-16.03757,27.37633-16.03757,6.08363,0,8.2129,6.30843,13.0798,6.30843s7.75663-12.56891,17.03416-12.56891c10.95053,0,13.384,22.88161,28.59305,22.88161Z"/><polygon id="_Clipping_Path_8" data-name="&lt;Clipping Path&gt;" class="cls-11" points="34.777 218.508 90.502 156.653 302.737 156.653 358.462 218.508 34.777 218.508"/><g class="cls-12"><line class="cls-10" x1="67.14533" y1="218.50835" x2="111.72535" y2="156.65293"/><line class="cls-10" x1="99.51389" y1="218.50835" x2="132.9489" y2="156.65293"/><line class="cls-10" x1="131.88244" y1="218.50835" x2="154.17245" y2="156.65293"/><line class="cls-10" x1="164.25099" y1="218.50835" x2="175.396" y2="156.65293"/><line class="cls-10" x1="196.61955" y1="218.50835" x2="196.61955" y2="156.65293"/><line class="cls-10" x1="228.9881" y1="218.50835" x2="217.8431" y2="156.65293"/><line class="cls-10" x1="261.35666" y1="218.50835" x2="239.06665" y2="156.65293"/><line class="cls-10" x1="293.72521" y1="218.50835" x2="260.2902" y2="156.65293"/><line class="cls-10" x1="326.09377" y1="218.50835" x2="281.51375" y2="156.65293"/><line class="cls-9" x1="50.38901" y1="201.68662" x2="343.40385" y2="201.68662"/><line class="cls-9" x1="64.32296" y1="185.68662" x2="328.39806" y2="185.68662"/><line class="cls-9" x1="78.25691" y1="170.68662" x2="314.46411" y2="170.68662"/></g><polygon id="_Clipping_Path_9" data-name="&lt;Clipping Path&gt;" class="cls-13" points="34.777 218.508 90.502 156.653 302.737 156.653 358.462 218.508 34.777 218.508"/><polygon id="_Clipping_Path_10" data-name="&lt;Clipping Path&gt;" class="cls-14" points="51.982 161.687 38.048 174.687 38.048 218.52 66.928 218.52 78.172 201.687 78.172 161.687 51.982 161.687"/><g class="cls-15"><polygon class="cls-5" points="66.928 174.687 38.048 174.687 51.982 161.687 78.172 161.687 66.928 174.687"/><rect class="cls-7" x="38.04779" y="174.68662" width="28.87996" height="43.83333"/></g><polygon id="_Clipping_Path_11" data-name="&lt;Clipping Path&gt;" class="cls-13" points="51.982 161.687 38.048 174.687 38.048 218.52 66.928 218.52 78.172 201.687 78.172 161.687 51.982 161.687"/><polygon id="_Clipping_Path_12" data-name="&lt;Clipping Path&gt;" class="cls-14" points="90.35 108.687 78.559 121.687 78.559 201.687 106.367 201.687 115.468 185.687 115.468 108.687 90.35 108.687"/><g class="cls-16"><polygon class="cls-5" points="106.367 121.687 78.559 121.687 90.35 108.687 115.468 108.687 106.367 121.687"/><rect class="cls-7" x="78.55936" y="121.68662" width="27.80812" height="80"/></g><polygon id="_Clipping_Path_13" data-name="&lt;Clipping Path&gt;" class="cls-13" points="90.35 108.687 78.559 121.687 78.559 201.687 106.367 201.687 115.468 185.687 115.468 108.687 90.35 108.687"/><polygon id="_Clipping_Path_14" data-name="&lt;Clipping Path&gt;" class="cls-14" points="301.548 58.687 313.338 71.687 313.338 201.687 285.53 201.687 276.43 185.687 276.43 58.687 301.548 58.687"/><g class="cls-17"><polygon class="cls-5" points="285.53 71.687 313.338 71.687 301.548 58.687 276.43 58.687 285.53 71.687"/><rect class="cls-7" x="285.53018" y="71.68662" width="27.80812" height="130"/></g><polygon id="_Clipping_Path_15" data-name="&lt;Clipping Path&gt;" class="cls-13" points="301.548 58.687 313.338 71.687 313.338 201.687 285.53 201.687 276.43 185.687 276.43 58.687 301.548 58.687"/><path class="cls-10" d="M34.26172,68.42461c11.507,0,13.09053-11.722,19.00239-11.722,4.22275,0,5.70072,4.6109,9.07892,4.6109s5.384-9.18675,11.82371-9.18675c7.601,0,9.29006,16.72441,19.84694,16.72441Z"/><ellipse class="cls-18" cx="196.27308" cy="185.96518" rx="64.49873" ry="7.38138"/><polyline class="cls-9" points="30.434 165.517 24.401 165.517 24.401 195.234 30.746 195.234"/><line class="cls-9" x1="24.40095" y1="180.37573" x2="17.53572" y2="180.37573"/><rect class="cls-9" x="1" y="172.94002" width="16.53572" height="16.53572"/><polyline class="cls-9" points="70.434 109.517 64.401 109.517 64.401 151.234 70.746 151.234"/><line class="cls-9" x1="64.40095" y1="128.37573" x2="57.53572" y2="128.37573"/><rect class="cls-9" x="41" y="120.94002" width="16.53572" height="16.53572"/><line class="cls-9" x1="328.34514" y1="129.37573" x2="335.21037" y2="129.37573"/><rect class="cls-9" x="335.21037" y="120.27572" width="16.53572" height="16.53572" transform="translate(686.95647 257.08716) rotate(180)"/><circle class="cls-4" cx="196.66242" cy="13.71831" r="11.71831"/><rect class="cls-2" x="186.50171" y="23.18662" width="20.32142" height="10.21539"/><circle id="_Ellipse_5" data-name="&lt;Ellipse&gt;" class="cls-19" cx="196.61955" cy="109.34142" r="77.8452"/><g class="cls-20"><circle class="cls-14" cx="196.61955" cy="109.34142" r="72.77149"/></g><circle id="_Ellipse_6" data-name="&lt;Ellipse&gt;" class="cls-13" cx="196.61955" cy="109.34142" r="77.8452"/><circle id="_Ellipse_7" data-name="&lt;Ellipse&gt;" class="cls-11" cx="196.61955" cy="109.34142" r="64.8452"/><g class="cls-21"><rect class="cls-7" x="127.26644" y="109.34142" width="136.81887" height="64.8452"/><g id="_Group_" data-name="&lt;Group&gt;" class="cls-22"><path class="cls-23" d="M131.77435,109.34141l-0.17075-2.293c-0.06635-.74631-0.0864-1.66977-0.09485-2.76785-0.004-.54776-0.025-1.1413-0.01575-1.77148q0.04623-.94162.09824-1.99963a56.294,56.294,0,0,1,1.42764-10.14172,61.05306,61.05306,0,0,1,4.3923-12.67484,63.87451,63.87451,0,0,1,14.68466-19.90564,61.46988,61.46988,0,0,1,7.23666-5.75645A65.16591,65.16591,0,0,1,176.77167,43.545,67.02315,67.02315,0,0,1,186.54,41.27486a75.39767,75.39767,0,0,1,10.0795-.77744l2.48755,0.06813c0.76682,0.0062,1.64291.07686,2.51263,0.14726,1.75311,0.10449,3.41431.33722,5.07968,0.55986a66.49752,66.49752,0,0,1,9.76974,2.2666,65.13135,65.13135,0,0,1,17.44327,8.48257,61.7068,61.7068,0,0,1,7.23856,5.75645A63.83433,63.83433,0,0,1,255.837,77.688a60.93806,60.93806,0,0,1,4.39066,12.67752,56.20064,56.20064,0,0,1,1.42453,10.14337q0.05141,1.05739.09726,1.99985c0.00986,0.62842-.01257,1.21906-0.0166,1.76575-0.00922,1.0939-.02948,2.02008-0.09613,2.77176-0.11218,1.49686-.172,2.29517-0.172,2.29517l-0.28769-2.27921c-0.07025-.7417-0.21872-1.65106-0.40668-2.71381-0.16467-1.06479-.40152-2.27838-0.69543-3.62723a68.83962,68.83962,0,0,0-2.78119-9.48166,71.14081,71.14081,0,0,0-5.50592-11.38272c-0.59879-.98483-1.25317-1.96362-1.90576-2.96353-0.714-.96222-1.37708-1.98129-2.15979-2.94034a66.44074,66.44074,0,0,0-4.977-5.77563,63.74812,63.74812,0,0,0-5.91428-5.40109c-1.04483-.87718-2.17593-1.66731-3.28391-2.50311-0.5636-.4053-1.15356-0.77966-1.73175-1.174-0.57581-.39832-1.16608-0.77959-1.77756-1.13333a64.30332,64.30332,0,0,0-7.58142-3.99908l-1.99957-.85745-2.04852-.76427c-0.67719-.27408-1.37561-0.4944-2.07394-0.71875-0.70126-.21449-1.38757-0.48161-2.10382-0.65628a67.59922,67.59922,0,0,0-8.68384-1.8503c-1.4794-.18425-2.96683-0.38182-4.3912-0.45357-1.32544-.143-3.17679-0.12012-4.536-0.171a63.76634,63.76634,0,0,0-17.6127,2.46919,66.20392,66.20392,0,0,0-8.22787,2.99451,64.64876,64.64876,0,0,0-7.58356,3.998,62.48812,62.48812,0,0,0-6.79507,4.81049,64.40583,64.40583,0,0,0-5.91568,5.40189,67.41208,67.41208,0,0,0-9.04251,11.68274,70.95989,70.95989,0,0,0-5.50427,11.38541,68.68109,68.68109,0,0,0-2.77808,9.48331c-0.293,1.35077-.52994,2.56137-0.6936,3.6217-0.18723,1.05853-.33548,1.97064-0.40543,2.71771C131.874,108.54789,131.77435,109.34141,131.77435,109.34141Z"/></g></g><circle id="_Ellipse_8" data-name="&lt;Ellipse&gt;" class="cls-24" cx="196.61955" cy="109.34142" r="64.8452"/><line class="cls-24" x1="131.77435" y1="109.34142" x2="261.46475" y2="109.34142"/><circle class="cls-25" cx="196.65486" cy="111.34142" r="16.91391"/><circle class="cls-3" cx="196.65486" cy="109.34142" r="16.91391"/><path class="cls-9" d="M173.86449,102.24523a23.87229,23.87229,0,0,1,45.58007-.00219"/><rect id="_Rectangle_2" data-name="&lt;Rectangle&gt;" class="cls-19" x="181.07909" y="12.85329" width="31.16667" height="10.33333"/><g class="cls-26"><line class="cls-24" x1="186.50171" y1="11.85329" x2="186.50171" y2="24.35329"/><line class="cls-24" x1="190.50171" y1="11.85329" x2="190.50171" y2="24.35329"/><line class="cls-24" x1="194.50171" y1="11.85329" x2="194.50171" y2="24.35329"/><line class="cls-24" x1="198.50171" y1="11.85329" x2="198.50171" y2="24.35329"/><line class="cls-24" x1="202.50171" y1="11.85329" x2="202.50171" y2="24.35329"/><line class="cls-24" x1="206.50171" y1="11.85329" x2="206.50171" y2="24.35329"/></g><rect id="_Rectangle_3" data-name="&lt;Rectangle&gt;" class="cls-13" x="181.07909" y="12.85329" width="31.16667" height="10.33333"/><circle class="cls-23" cx="142.7442" cy="92.77634" r="1.91797" transform="translate(16.18423 206.64437) rotate(-75)"/><circle class="cls-23" cx="148.48105" cy="79.34417" r="1.91797" transform="translate(5.52646 168.26045) rotate(-60)"/><circle class="cls-23" cx="157.49892" cy="67.85451" r="1.91797" transform="translate(-1.85002 131.24268) rotate(-45)"/><circle class="cls-23" cx="169.18326" cy="59.09034" r="1.91797" transform="translate(-6.87891 92.50823) rotate(-30)"/><circle class="cls-23" cx="182.7378" cy="53.64893" r="1.91797" transform="translate(-7.65873 49.12407) rotate(-15)"/><circle class="cls-23" cx="197.23882" cy="51.90111" r="1.91797"/><circle class="cls-23" cx="211.6981" cy="53.96598" r="1.91797" transform="matrix(0.25882, -0.96593, 0.96593, 0.25882, 104.77947, 244.48321)"/><circle class="cls-23" cx="225.13026" cy="59.70283" r="1.91797" transform="translate(60.86096 224.81994) rotate(-60)"/><circle class="cls-23" cx="236.61992" cy="68.7207" r="1.91797" transform="translate(20.7115 187.44338) rotate(-45)"/><circle class="cls-23" cx="245.38409" cy="80.40504" r="1.91797" transform="matrix(0.86603, -0.5, 0.5, 0.86603, -7.32728, 133.46428)"/><circle class="cls-23" cx="250.8255" cy="93.95957" r="1.91797" transform="translate(-15.77186 68.12001) rotate(-15)"/><path id="_Clipping_Path_16" data-name="&lt;Clipping Path&gt;" class="cls-14" d="M172.4114,70.30485l7.95868,12.57159a30.95239,30.95239,0,0,0-14.87653,26.465H150.61226A45.81748,45.81748,0,0,1,172.4114,70.30485Z"/><g class="cls-27"><g class="cls-28"><line class="cls-29" x1="150.82427" y1="110.34141" x2="165.33306" y2="110.34141"/><line class="cls-29" x1="150.82427" y1="110.34141" x2="165.33306" y2="110.34141"/><line class="cls-29" x1="151.07631" y1="105.53234" x2="165.50561" y2="107.04892"/><line class="cls-29" x1="151.82964" y1="100.77595" x2="166.02138" y2="103.7925"/><line class="cls-29" x1="153.07603" y1="96.12437" x2="166.87471" y2="100.60784"/><line class="cls-29" x1="154.80182" y1="91.62856" x2="168.05626" y2="97.52981"/><line class="cls-29" x1="156.98809" y1="87.33777" x2="169.55307" y2="94.59216"/><line class="cls-29" x1="159.61089" y1="83.29901" x2="171.34875" y2="91.82706"/><line class="cls-29" x1="162.64149" y1="79.55653" x2="173.42362" y2="89.2648"/><line class="cls-29" x1="166.04669" y1="76.15133" x2="175.75496" y2="86.93347"/><line class="cls-29" x1="169.78917" y1="73.12074" x2="178.31722" y2="84.85859"/></g></g><path id="_Clipping_Path_17" data-name="&lt;Clipping Path&gt;" class="cls-24" d="M172.4114,70.30485l7.95868,12.57159a30.95239,30.95239,0,0,0-14.87653,26.465H150.61226A45.81748,45.81748,0,0,1,172.4114,70.30485Z"/><path id="_Clipping_Path_18" data-name="&lt;Clipping Path&gt;" class="cls-30" d="M242.31722,109.34141H227.43593A30.93785,30.93785,0,0,0,213.29964,83.351l7.67914-12.75079A45.80753,45.80753,0,0,1,242.31722,109.34141Z"/><g class="cls-31"><line class="cls-29" x1="242.31722" y1="110.34141" x2="227.80843" y2="110.34141"/><line class="cls-29" x1="242.31722" y1="110.34141" x2="227.80843" y2="110.34141"/><line class="cls-29" x1="242.06518" y1="105.53234" x2="227.63588" y2="107.04892"/><line class="cls-29" x1="241.31185" y1="100.77595" x2="227.12011" y2="103.7925"/><line class="cls-29" x1="240.06546" y1="96.12437" x2="226.26678" y2="100.60784"/><line class="cls-29" x1="238.33967" y1="91.62856" x2="225.08523" y2="97.52981"/><line class="cls-29" x1="236.1534" y1="87.33777" x2="223.58842" y2="94.59216"/><line class="cls-29" x1="233.5306" y1="83.29901" x2="221.79274" y2="91.82706"/><line class="cls-29" x1="230.5" y1="79.55653" x2="219.71787" y2="89.2648"/><line class="cls-29" x1="227.0948" y1="76.15133" x2="217.38653" y2="86.93347"/><line class="cls-29" x1="223.35232" y1="73.12074" x2="214.82427" y2="84.85859"/></g><path id="_Clipping_Path_19" data-name="&lt;Clipping Path&gt;" class="cls-24" d="M242.31722,109.34141H227.43593A30.93785,30.93785,0,0,0,213.29964,83.351l7.67914-12.75079A45.80753,45.80753,0,0,1,242.31722,109.34141Z"/><path id="_Clipping_Path_20" data-name="&lt;Clipping Path&gt;" class="cls-19" d="M196.46474,63.48893a45.62107,45.62107,0,0,1,24.514,7.11127L213.29964,83.351a30.96753,30.96753,0,0,0-32.92957-.47455L172.4114,70.30485A45.629,45.629,0,0,1,196.46474,63.48893Z"/><g class="cls-32"><g class="cls-28"><line class="cls-33" x1="218.02437" y1="69.79903" x2="211.12292" y2="82.56128"/><line class="cls-33" x1="213.67432" y1="67.73318" x2="208.1447" y2="81.14691"/><line class="cls-33" x1="209.13216" y1="66.13335" x2="205.03495" y2="80.0516"/><line class="cls-33" x1="204.44765" y1="65.01707" x2="201.82774" y2="79.28735"/><line class="cls-33" x1="199.67212" y1="64.39656" x2="198.55821" y2="78.86253"/><line class="cls-33" x1="194.85789" y1="64.27864" x2="195.26219" y2="78.78179"/><line class="cls-33" x1="190.05771" y1="64.66458" x2="191.97579" y2="79.04603"/><line class="cls-33" x1="185.32417" y1="65.55017" x2="188.73501" y2="79.65234"/><line class="cls-33" x1="180.70913" y1="66.9257" x2="185.57536" y2="80.59408"/><line class="cls-33" x1="176.26315" y1="68.77609" x2="182.53146" y2="81.86094"/></g></g><path id="_Clipping_Path_21" data-name="&lt;Clipping Path&gt;" class="cls-24" d="M196.46474,63.48893a45.62107,45.62107,0,0,1,24.514,7.11127L213.29964,83.351a30.96753,30.96753,0,0,0-32.92957-.47455L172.4114,70.30485A45.629,45.629,0,0,1,196.46474,63.48893Z"/><circle class="cls-25" cx="196.61955" cy="111.34142" r="10.05871" transform="translate(-26.86739 144.65427) rotate(-38)"/><path class="cls-14" d="M247.71826,69.41874l-47.15143,30.67249a10.05871,10.05871,0,1,0,5.98309,7.658Z"/><path class="cls-24" d="M247.71826,69.41874l-47.15143,30.67249a10.05871,10.05871,0,1,0,5.98309,7.658Z"/><circle class="cls-23" cx="196.61955" cy="109.34142" r="5.13365" transform="translate(-25.63607 144.23029) rotate(-38)"/><line class="cls-9" x1="164.6132" y1="134.85329" x2="195.59701" y2="153.36087"/><line class="cls-9" x1="228.59701" y1="134.85329" x2="197.6132" y2="153.36087"/><circle id="_Ellipse_9" data-name="&lt;Ellipse&gt;" class="cls-19" cx="161.50903" cy="131.06162" r="13.77083"/><g class="cls-34"><rect class="cls-11" x="146.08884" y="116.55774" width="30.99747" height="18.3262"/></g><circle id="_Ellipse_10" data-name="&lt;Ellipse&gt;" class="cls-24" cx="161.50903" cy="131.06162" r="13.77083"/><circle class="cls-23" cx="161.58992" cy="136.1406" r="3.58435"/><line class="cls-11" x1="161.50903" y1="136.1406" x2="165.17427" y2="123.57406"/><polygon class="cls-23" points="159.906 135.673 165.174 123.574 163.112 136.608 159.906 135.673"/><circle class="cls-14" cx="161.74465" cy="122.3174" r="1.25665"/><circle class="cls-14" cx="167.93259" cy="125.04514" r="1.25665" transform="translate(-39.23395 155.37114) rotate(-45)"/><circle class="cls-14" cx="170.3271" cy="131.29724" r="1.25665"/><circle class="cls-14" cx="155.24725" cy="125.04514" r="1.25665" transform="translate(-42.9494 146.40126) rotate(-45)"/><circle class="cls-14" cx="152.85274" cy="131.29724" r="1.25665"/><circle id="_Ellipse_11" data-name="&lt;Ellipse&gt;" class="cls-19" cx="233.38419" cy="131.06162" r="13.77083"/><g class="cls-35"><rect class="cls-11" x="217.964" y="116.55774" width="30.99747" height="18.3262"/></g><circle id="_Ellipse_12" data-name="&lt;Ellipse&gt;" class="cls-24" cx="233.38419" cy="131.06162" r="13.77083"/><circle class="cls-23" cx="233.46508" cy="136.1406" r="3.58435"/><line class="cls-11" x1="233.38419" y1="136.1406" x2="242.62109" y2="126.31162"/><polygon class="cls-23" points="232.168 134.997 242.621 126.312 234.601 137.284 232.168 134.997"/><circle class="cls-14" cx="233.61981" cy="122.3174" r="1.25665"/><circle class="cls-14" cx="239.80775" cy="125.04514" r="1.25665" transform="translate(-18.1822 206.19456) rotate(-45)"/><circle class="cls-14" cx="242.20226" cy="131.29724" r="1.25665"/><circle class="cls-14" cx="227.12241" cy="125.04514" r="1.25665" transform="translate(-21.89765 197.22467) rotate(-45)"/><circle class="cls-14" cx="224.7279" cy="131.29724" r="1.25665"/><circle class="cls-5" cx="196.11808" cy="152.40698" r="13.8125"/><circle class="cls-30" cx="196.11808" cy="152.40698" r="10.00256"/><polygon class="cls-23" points="193.212 144.937 195.104 153.361 200.067 153.361 193.212 144.937"/><polygon class="cls-23" points="199.025 159.877 197.132 151.453 192.169 151.453 199.025 159.877"/><line class="cls-36" x1="226.81028" y1="150.14875" x2="239.9456" y2="150.14875"/><line class="cls-36" x1="226.81028" y1="154.14875" x2="234.9456" y2="154.14875"/><line class="cls-36" x1="168.9456" y1="150.14875" x2="155.81028" y2="150.14875"/><line class="cls-36" x1="167.9456" y1="154.14875" x2="160.81028" y2="154.14875"/><line class="cls-9" x1="35.12109" y1="235.18662" x2="343.62109" y2="235.18662"/><polygon class="cls-30" points="350.352 234.995 335.941 229.563 336.121 240.883 350.352 234.995"/><polygon class="cls-30" points="341.968 234.995 327.557 229.563 327.737 240.883 341.968 234.995"/><line class="cls-9" x1="35.12109" y1="228.43662" x2="35.12109" y2="241.93662"/><path class="cls-37" d="M99.684,98.73188a93.7062,93.7062,0,0,1,63.14666-79.37351"/><polygon class="cls-30" points="169.639 17.357 156.697 17.109 160.024 26.023 169.639 17.357"/><line class="cls-10" x1="93.01367" y1="98.73188" x2="106.28776" y2="98.73188"/><path class="cls-30" d="M5.15771,182.97764H6.61426v-2.85547c0-.25879.00977-0.52734,0.00977-0.52734H6.60449a1.27918,1.27918,0,0,1-.26807.36426l-0.41211.374-0.96777-1.03516,1.84912-1.73437H8.25293v5.41406H9.71875v1.4375h-4.561v-1.4375Z"/><path class="cls-30" d="M11.63818,181.97178l-1.59082-2.49121H11.916l0.53662,1.10156c0.06689,0.125.15332,0.32617,0.15332,0.32617h0.019s0.0957-.20117.15332-0.32617l0.53662-1.10156h1.86865l-1.58105,2.49121,1.55225,2.44336H13.334l-0.59375-1.11133c-0.04834-.08691-0.11523-0.249-0.11523-0.249H12.606s-0.06738.16211-.11523,0.249l-0.58447,1.11133h-1.8208Z"/><path class="cls-30" d="M44.58105,131.17686c0-2.5293,2.96094-2.97949,2.96094-3.9668a0.67687,0.67687,0,0,0-.73779-0.68066,1.31842,1.31842,0,0,0-1.01562.72852l-1.24561-.834a2.642,2.642,0,0,1,2.41455-1.47559A2.13809,2.13809,0,0,1,49.2959,127.047c0,2.13672-2.75977,2.54883-2.80811,3.43066h2.91309v1.4375H44.65771A4.2064,4.2064,0,0,1,44.58105,131.17686Z"/><path class="cls-30" d="M51.5791,129.47178l-1.59082-2.49121h1.86865l0.53662,1.10156c0.06689,0.125.15332,0.32617,0.15332,0.32617h0.019s0.0957-.20117.15332-0.32617l0.53662-1.10156h1.86865l-1.58105,2.49121,1.55225,2.44336H53.2749l-0.59424-1.11133c-0.04785-.08691-0.11475-0.249-0.11475-0.249h-0.019s-0.06738.16211-.11523,0.249l-0.58447,1.11133h-1.8208Z"/><path class="cls-30" d="M339.21338,129.836a2.24042,2.24042,0,0,0,1.40869.61328,0.82029,0.82029,0,0,0,.97754-0.68066c0-.53711-0.53662-0.75684-1.27441-0.75684H339.8457l-0.35449-.81445,0.90088-1.083a7.543,7.543,0,0,1,.59424-0.64258v-0.01855a3.42277,3.42277,0,0,1-.65186.04785h-1.63818v-1.4375h4.32129v1.04492l-1.38916,1.59961a2.013,2.013,0,0,1,1.65771,1.98437,2.3297,2.3297,0,0,1-2.53955,2.33789,3.24661,3.24661,0,0,1-2.33789-.90137Z"/><path class="cls-30" d="M345.44482,129.47178l-1.59082-2.49121h1.86865l0.53662,1.10156c0.06689,0.125.15332,0.32617,0.15332,0.32617h0.019s0.0957-.20117.15332-0.32617l0.53662-1.10156h1.86865l-1.58105,2.49121,1.55225,2.44336h-1.8208l-0.59375-1.11133c-0.04834-.08691-0.11523-0.249-0.11523-0.249h-0.019s-0.06738.16211-.11523,0.249l-0.58447,1.11133h-1.8208Z"/></g></g></svg>