<?xml version="1.0" encoding="utf-8"?>
<!-- Generator: Adobe Illustrator 19.1.0, SVG Export Plug-In . SVG Version: 6.00 Build 0)  -->
<svg version="1.1" id="Layer_1" xmlns="http://www.w3.org/2000/svg" xmlns:xlink="http://www.w3.org/1999/xlink" x="0px" y="0px"
	 viewBox="37 69.6 477.1 442.8" style="enable-background:new 37 69.6 477.1 442.8;" xml:space="preserve">
<style type="text/css">
	.st0{fill:#B9D7F3;stroke:#2481D7;stroke-width:2;stroke-linecap:round;stroke-linejoin:round;stroke-miterlimit:10;}
	.st1{fill:#FFFFFF;stroke:#2481D7;stroke-width:2;stroke-linecap:round;stroke-linejoin:round;stroke-miterlimit:10;}
	.st2{fill:#EBF4FC;}
	.st3{fill:none;stroke:#2481D7;stroke-width:2;stroke-linecap:round;stroke-linejoin:round;stroke-miterlimit:10;}
	.st4{fill:#2481D7;}
	.st5{fill:none;stroke:#2481D7;stroke-width:9.6774;stroke-linecap:round;stroke-linejoin:round;stroke-miterlimit:10;}
	.st6{fill:#FFFFFF;stroke:#2481D7;stroke-width:2;stroke-linecap:round;stroke-linejoin:round;stroke-miterlimit:10;}
	.st7{fill:none;stroke:#2481D7;stroke-width:2;stroke-linecap:round;stroke-linejoin:round;stroke-miterlimit:10;}
	.st8{fill:#B9D7F3;}
	.st9{fill:none;stroke:#88BBEA;stroke-width:2;stroke-miterlimit:10;}
	.st10{fill:#FFFFFF;}
	.st11{fill:#FFFFFF;stroke:#2481D7;stroke-width:2;stroke-linecap:round;stroke-linejoin:round;stroke-miterlimit:10;}
	.st12{fill:#B9D7F3;stroke:#2481D7;stroke-width:2;stroke-linecap:round;stroke-linejoin:round;stroke-miterlimit:10;}
	.st13{fill:none;stroke:#2481D7;stroke-width:2;stroke-linecap:round;stroke-linejoin:round;stroke-miterlimit:10;}
</style>
<g>
	<path class="st0" d="M351.5,510.2h-147c-20.2,0-36.7-16.4-36.7-36.7V108.3c0-20.2,16.4-36.7,36.7-36.7h147
		c20.2,0,36.7,16.4,36.7,36.7v365.3C388.1,493.9,371.8,510.2,351.5,510.2z"/>
	<path class="st1" d="M350.1,501.5H205.9c-16.1,0-29-13-29-29V109.4c0-16.1,13-29,29-29h144.2c16.1,0,29,13,29,29v363.1
		C379.2,488.5,366.2,501.5,350.1,501.5z"/>
	<path class="st2" d="M372.4,135.2v22.7H183.6v-22.7c0-4.6,3.8-8.4,8.5-8.4H364C368.6,126.8,372.4,130.6,372.4,135.2z"/>
	<path class="st3" d="M192.1,126.8H364c4.7,0,8.4,3.8,8.4,8.4v300c0,4.7-3.8,8.4-8.4,8.4H192.1c-4.7,0-8.4-3.8-8.4-8.4v-300
		C183.6,130.6,187.4,126.8,192.1,126.8z"/>
	<g>
		<circle class="st4" cx="251.6" cy="106.3" r="4"/>
		<line class="st5" x1="267.8" y1="106.3" x2="303.5" y2="106.3"/>
	</g>
	<circle class="st6" cx="278" cy="473" r="20.9"/>
	<path class="st7" d="M271.9,460.8h12.3c3.4,0,6.1,2.7,6.1,6.1v12.3c0,3.4-2.7,6.1-6.1,6.1h-12.3c-3.4,0-6.1-2.7-6.1-6.1v-12.3
		C265.7,463.5,268.5,460.8,271.9,460.8z"/>
	<path class="st1" d="M167.9,118.1L167.9,118.1v40.3l0,0c-3.9,0-7.2-3.2-7.2-7.2v-26C160.7,121.3,163.9,118.1,167.9,118.1z"/>
	<path class="st1" d="M167.9,173.1L167.9,173.1v40.3l0,0c-3.9,0-7.2-3.2-7.2-7.2v-26C160.7,176.2,163.9,173.1,167.9,173.1z"/>
	<path class="st1" d="M388.1,157.9L388.1,157.9v-40.3l0,0c3.9,0,7.2,3.2,7.2,7.2v26C395.3,154.7,392.1,157.9,388.1,157.9z"/>
	<circle class="st4" cx="193.6" cy="134.8" r="3"/>
	<circle class="st4" cx="200.9" cy="134.8" r="3"/>
	<circle class="st4" cx="208.2" cy="134.8" r="3"/>
	<circle class="st8" cx="215.4" cy="134.8" r="3"/>
	<circle class="st8" cx="222.8" cy="134.8" r="3"/>
	<path class="st8" d="M211.8,330.7h63.9c1.8,0,3.3,1.4,3.3,3.3v15.2c0,1.8-1.4,3.3-3.3,3.3h-63.9c-1.8,0-3.3-1.4-3.3-3.3V334
		C208.5,332.1,210,330.7,211.8,330.7z"/>
	<path class="st8" d="M211.8,384.8h30c1.8,0,3.3,1.4,3.3,3.3v15.2c0,1.8-1.4,3.3-3.3,3.3h-30c-1.8,0-3.3-1.4-3.3-3.3V388
		C208.5,386.3,210,384.8,211.8,384.8z"/>
	<path class="st8" d="M211.8,411.9h57.1c1.8,0,3.3,1.4,3.3,3.3v15.2c0,1.8-1.4,3.3-3.3,3.3h-57.1c-1.8,0-3.3-1.4-3.3-3.3v-15.2
		C208.5,413.3,210,411.9,211.8,411.9z"/>
	<path class="st4" d="M295.7,168.2H345c1.7,0,3,1.3,3,3v15.8c0,1.7-1.3,3-3,3h-49.3c-1.7,0-3-1.3-3-3v-15.8
		C292.7,169.6,294.1,168.2,295.7,168.2z"/>
	<g>
		<path class="st2" d="M252.6,195.3H345c1.7,0,3,1.3,3,3v83.3c0,1.7-1.3,3-3,3h-92.3c-1.7,0-3-1.3-3-3v-83.3
			C249.7,196.6,251,195.3,252.6,195.3z"/>
	</g>
	<polyline class="st9" points="265.7,196.8 265.7,223.8 292.5,250.6 346.3,250.6 	"/>
	<line class="st9" x1="292.2" y1="196.8" x2="292.2" y2="283.7"/>
	<line class="st9" x1="265.7" y1="223.8" x2="250.8" y2="223.8"/>
	<polyline class="st9" points="293,231.8 308.1,216.7 346.3,216.7 	"/>
	<line class="st9" x1="327.3" y1="196.8" x2="327.3" y2="283.9"/>
	<polyline class="st9" points="346.3,233.7 308.4,233.7 308.4,250.6 308.4,283.7 	"/>
	<polyline class="st9" points="308.4,269.5 265.7,269.5 265.7,282.3 	"/>
	<line class="st9" x1="292.5" y1="250.6" x2="250.8" y2="250.6"/>
	<line class="st9" x1="278.9" y1="236.9" x2="250.8" y2="236.9"/>
	<g>
		<path class="st4" d="M345,197.5c0.4,0,0.7,0.3,0.7,0.7v83.3c0,0.4-0.3,0.7-0.7,0.7h-92.4c-0.4,0-0.7-0.3-0.7-0.7v-83.3
			c0-0.4,0.3-0.7,0.7-0.7H345 M345,195.3h-92.4c-1.7,0-3,1.3-3,3v83.3c0,1.7,1.3,3,3,3H345c1.7,0,3-1.3,3-3v-83.3
			C348,196.6,346.6,195.3,345,195.3L345,195.3z"/>
	</g>
	<path class="st4" d="M268.6,290H345c1.7,0,3,1.3,3,3v29.3c0,1.7-1.3,3-3,3h-76.4c-1.7,0-3-1.3-3-3V293
		C265.7,291.4,266.9,290,268.6,290z"/>
	<path class="st4" d="M316,357.7h29c1.7,0,3,1.3,3,3v15.8c0,1.7-1.3,3-3,3h-29c-1.7,0-3-1.3-3-3v-15.8
		C313,359,314.4,357.7,316,357.7z"/>
	<circle class="st4" cx="360.1" cy="212.9" r="8.1"/>
	<circle class="st4" cx="360.1" cy="212.9" r="8.1"/>
	<circle class="st4" cx="360.1" cy="307.7" r="8.1"/>
	<circle class="st8" cx="196.6" cy="341.5" r="8.1"/>
	<circle class="st8" cx="196.6" cy="422.7" r="8.1"/>
	<circle class="st4" cx="360.1" cy="368.6" r="8.1"/>
</g>
<g>
	<path class="st10" d="M84.5,214.2c-25.6,0-46.5-20.9-46.5-46.5s20.9-46.5,46.5-46.5s46.5,20.9,46.5,46.5S110.2,214.2,84.5,214.2z"
		/>
	<path class="st8" d="M84.5,122.2c25.1,0,45.5,20.4,45.5,45.5s-20.4,45.5-45.5,45.5S39,192.8,39,167.7S59.4,122.2,84.5,122.2
		 M84.5,120.2c-26.2,0-47.5,21.3-47.5,47.5s21.3,47.5,47.5,47.5s47.5-21.3,47.5-47.5C132,141.4,110.7,120.2,84.5,120.2L84.5,120.2z"
		/>
</g>
<g>
	<path class="st10" d="M84.5,441.6c-25.6,0-46.5-20.9-46.5-46.5s20.9-46.5,46.5-46.5s46.5,20.9,46.5,46.5
		C131,420.7,110.2,441.6,84.5,441.6z"/>
	<path class="st8" d="M84.5,349.6c25.1,0,45.5,20.4,45.5,45.5s-20.4,45.5-45.5,45.5S39,420.2,39,395.1S59.4,349.6,84.5,349.6
		 M84.5,347.6c-26.2,0-47.5,21.3-47.5,47.5c0,26.2,21.3,47.5,47.5,47.5s47.5-21.3,47.5-47.5S110.8,347.6,84.5,347.6L84.5,347.6z"/>
</g>
<g>
	<path class="st10" d="M466.6,442.1c-25.6,0-46.5-20.9-46.5-46.5c0-25.6,20.9-46.5,46.5-46.5s46.5,20.9,46.5,46.5
		C513.1,421.2,492.3,442.1,466.6,442.1z"/>
	<path class="st8" d="M466.6,350.1c25.1,0,45.5,20.4,45.5,45.5c0,25.1-20.4,45.5-45.5,45.5s-45.5-20.4-45.5-45.5
		C421.1,370.5,441.5,350.1,466.6,350.1 M466.6,348.1c-26.2,0-47.5,21.3-47.5,47.5s21.3,47.5,47.5,47.5s47.5-21.3,47.5-47.5
		S492.8,348.1,466.6,348.1L466.6,348.1z"/>
</g>
<polygon class="st8" points="466.6,378.4 466.6,412.8 474.1,417.4 474.1,373.7 "/>
<path class="st8" d="M446.1,385.8h-4.5v19.5h4.6c0.3,0,0.6,0.1,0.9,0.2v-19.9C446.8,385.7,446.5,385.8,446.1,385.8z"/>
<g>
	<path class="st10" d="M466.6,214.7c-25.6,0-46.5-20.9-46.5-46.5s20.9-46.5,46.5-46.5s46.5,20.9,46.5,46.5S492.2,214.7,466.6,214.7z
		"/>
	<path class="st8" d="M466.6,122.7c25.1,0,45.5,20.4,45.5,45.5s-20.4,45.5-45.5,45.5s-45.5-20.4-45.5-45.5S441.5,122.7,466.6,122.7
		 M466.6,120.7c-26.2,0-47.5,21.3-47.5,47.5s21.3,47.5,47.5,47.5s47.5-21.3,47.5-47.5S492.8,120.7,466.6,120.7L466.6,120.7z"/>
</g>
<polygon class="st8" points="487.7,183.5 480.6,179.5 480.6,168.2 487.7,163.2 "/>
<polygon class="st3" points="493.8,160.1 480.6,167.7 480.6,158.9 440.4,158.9 440.4,189.5 480.6,189.5 480.6,179.4 493.8,187 "/>
<g>
	<g>
		<path class="st10" d="M59.7,422.4c-0.8,0-1.4-0.6-1.4-1.4v-53.6c0-0.8,0.6-1.4,1.4-1.4h49.6c0.8,0,1.4,0.6,1.4,1.4V421
			c0,0.8-0.6,1.4-1.4,1.4H59.7z"/>
		<path class="st4" d="M109.3,367.4V421H59.7v-53.6L109.3,367.4 M109.3,364.7H59.7c-1.5,0-2.8,1.2-2.8,2.8v53.6
			c0,1.5,1.2,2.8,2.8,2.8h49.6c1.5,0,2.8-1.2,2.8-2.8v-53.6C112.1,365.9,110.8,364.7,109.3,364.7L109.3,364.7z"/>
	</g>
	<rect x="64.7" y="372.4" class="st3" width="39.6" height="38.6"/>
</g>
<path class="st7" d="M446.1,385.8h-7.9c-1.5,0-2.8,1.3-2.8,2.8v14c0,1.5,1.3,2.8,2.8,2.8h7.9c0.4,0,0.8,0.1,1.1,0.2l34.5,15.2v-50.4
	l-34.5,15.2C446.9,385.7,446.5,385.8,446.1,385.8z"/>
<circle class="st11" cx="73.3" cy="381.9" r="4.2"/>
<polygon class="st12" points="104.3,395.1 94.1,384.4 79.8,402.1 72.3,395.1 64.7,403.6 64.7,411 104.3,411 "/>
<ellipse class="st8" cx="83.5" cy="194.3" rx="17.5" ry="4.5"/>
<g>
	<path class="st3" d="M83.5,137.5c-9.7,0-17.5,7.8-17.5,17.5c0,19.5,17.5,38.2,17.5,38.2S101,175,101,155
		C101,145.4,93.2,137.5,83.5,137.5z M83.5,162.3c-3.8,0-6.9-3.1-6.9-6.9s3.1-6.9,6.9-6.9s6.9,3.1,6.9,6.9S87.3,162.3,83.5,162.3z"/>
</g>
<ellipse class="st8" cx="241.6" cy="181.8" rx="7" ry="4.2"/>
<g>
	<path class="st6" d="M241.6,139.6c-7.3,0-13.3,5.9-13.3,13.3c0,14.8,13.3,28.9,13.3,28.9s13.3-13.8,13.3-28.9
		C254.9,145.5,248.9,139.6,241.6,139.6z M241.6,158.4c-2.9,0-5.2-2.3-5.2-5.2c0-2.9,2.3-5.2,5.2-5.2c2.9,0,5.2,2.3,5.2,5.2
		C246.8,156,244.5,158.4,241.6,158.4z"/>
</g>
<line class="st7" x1="446.1" y1="385.8" x2="446.1" y2="405.4"/>
<line class="st13" x1="473.2" y1="374.2" x2="473.2" y2="416.1"/>
<line class="st13" x1="466.6" y1="378.6" x2="466.6" y2="412.4"/>
<line class="st7" x1="487.1" y1="385.8" x2="494.6" y2="378.6"/>
<line class="st7" x1="494.6" y1="411.8" x2="487.1" y2="404.6"/>
<line class="st7" x1="491.6" y1="395.1" x2="501.6" y2="395.1"/>
<line class="st3" x1="480.6" y1="167.7" x2="480.6" y2="179.4"/>
<rect x="448.3" y="168.2" class="st12" width="24" height="13.1"/>
<circle class="st3" cx="471.3" cy="148.8" r="10.1"/>
<g>
	<circle class="st8" cx="471.3" cy="148.8" r="2.6"/>
	<path class="st4" d="M471.3,147.2c0.9,0,1.6,0.7,1.6,1.6s-0.7,1.6-1.6,1.6s-1.6-0.7-1.6-1.6S470.4,147.2,471.3,147.2 M471.3,145.2
		c-2,0-3.6,1.6-3.6,3.6s1.6,3.6,3.6,3.6s3.6-1.6,3.6-3.6C474.8,146.8,473.2,145.2,471.3,145.2L471.3,145.2z"/>
</g>
<g>
	<circle class="st8" cx="450.3" cy="148.8" r="2.6"/>
	<path class="st4" d="M450.3,147.2c0.9,0,1.6,0.7,1.6,1.6s-0.7,1.6-1.6,1.6s-1.6-0.7-1.6-1.6S449.4,147.2,450.3,147.2 M450.3,145.2
		c-2,0-3.6,1.6-3.6,3.6s1.6,3.6,3.6,3.6s3.6-1.6,3.6-3.6C453.8,146.8,452.2,145.2,450.3,145.2L450.3,145.2z"/>
</g>
<circle class="st3" cx="450.3" cy="148.8" r="10.1"/>
</svg>
