<svg id="Layer_1" data-name="Layer 1" xmlns="http://www.w3.org/2000/svg" xmlns:xlink="http://www.w3.org/1999/xlink" viewBox="0 0 439.39294 257.34086"><defs><style>.cls-1,.cls-22,.cls-4,.cls-5,.cls-8{fill:#fff;}.cls-1,.cls-11,.cls-12,.cls-14,.cls-16,.cls-17,.cls-2,.cls-21,.cls-24,.cls-25,.cls-28,.cls-3,.cls-30,.cls-4{stroke:#2481d7;}.cls-1,.cls-11,.cls-12,.cls-14,.cls-16,.cls-2,.cls-21,.cls-22,.cls-23,.cls-25,.cls-28,.cls-3,.cls-30,.cls-4,.cls-5,.cls-6,.cls-7{stroke-miterlimit:10;}.cls-1,.cls-12,.cls-2,.cls-24,.cls-25,.cls-28,.cls-3{stroke-width:4px;}.cls-2,.cls-21,.cls-9{fill:#c8dff5;}.cls-14,.cls-18,.cls-3{fill:#91c0eb;}.cls-11,.cls-14,.cls-16,.cls-17,.cls-21,.cls-22,.cls-23,.cls-30,.cls-4,.cls-5,.cls-6,.cls-7{stroke-width:2px;}.cls-5,.cls-6,.cls-7{stroke:#c8dff5;}.cls-11,.cls-12,.cls-23,.cls-30,.cls-6,.cls-7{fill:none;}.cls-6{stroke-dasharray:4;}.cls-10{clip-path:url(#clip-path);}.cls-13{clip-path:url(#clip-path-2);}.cls-15,.cls-27,.cls-28{fill:#2481d7;}.cls-16,.cls-17,.cls-24,.cls-25{fill:#5ba1e1;}.cls-17,.cls-24{stroke-linejoin:round;}.cls-19{clip-path:url(#clip-path-3);}.cls-20{clip-path:url(#clip-path-4);}.cls-22,.cls-23{stroke:#91c0eb;}.cls-25,.cls-30{stroke-linecap:round;}.cls-26{clip-path:url(#clip-path-5);}.cls-27{opacity:0.25;}.cls-29{clip-path:url(#clip-path-6);}</style><clipPath id="clip-path"><rect id="_Rectangle_" data-name="&lt;Rectangle&gt;" class="cls-1" x="188.64313" y="2" width="50.26747" height="30.77171"/></clipPath><clipPath id="clip-path-2"><circle id="_Ellipse_" data-name="&lt;Ellipse&gt;" class="cls-2" cx="353.94363" cy="124.7468" r="34.02857"/></clipPath><clipPath id="clip-path-3"><circle id="_Ellipse_2" data-name="&lt;Ellipse&gt;" class="cls-3" cx="79.16915" cy="124.28804" r="34.02857"/></clipPath><clipPath id="clip-path-4"><path id="_Rectangle_2" data-name="&lt;Rectangle&gt;" class="cls-4" d="M73.15426,134.46818H86.33383a10.58053,10.58053,0,0,1,10.58053,10.58053v16.31273a0,0,0,0,1,0,0H62.57373a0,0,0,0,1,0,0V145.04871A10.58053,10.58053,0,0,1,73.15426,134.46818Z"/></clipPath><clipPath id="clip-path-5"><path id="_Compound_Clipping_Path_" data-name="&lt;Compound Clipping Path&gt;" class="cls-2" d="M159.73792,68.31669a76.59192,76.59192,0,1,0,108.31733,0A76.592,76.592,0,0,0,159.73792,68.31669ZM241.181,149.75982a38.58606,38.58606,0,1,1,0-54.56893A38.586,38.586,0,0,1,241.181,149.75982Z"/></clipPath><clipPath id="clip-path-6"><circle id="_Ellipse_3" data-name="&lt;Ellipse&gt;" class="cls-2" cx="213.17748" cy="231.50752" r="18.23155"/></clipPath></defs><title>homepage-illos-final</title><path class="cls-5" d="M431.83366,135.34293l-8.07279,5.08568-8.5912-5.13046a14.0463,14.0463,0,0,1-6.8446-12.0596V113.2139l0.00051-.00027a32.15725,32.15725,0,0,1,29.0687-.48505l0.99865,0.48532v10.24445A14.0463,14.0463,0,0,1,431.83366,135.34293Z"/><path class="cls-6" d="M80.5877,162.64772v20.62135l135.32917-59.24029L79.57507,67.2332V87.526"/><path class="cls-6" d="M352.71232,86.4679V67.2332l-136.3418,56.79559,135.32917,59.24029V162.64772"/><path class="cls-7" d="M121.40379,178.26675a108.10675,108.10675,0,0,0,188.12-3.48494M168.15393,27.7082A108.55423,108.55423,0,0,0,120.40779,72.133M308.599,72.24726A108.39917,108.39917,0,0,0,248.32709,22.7161"/><circle class="cls-8" cx="353.55251" cy="66.11281" r="3.27087"/><path class="cls-9" d="M353.55239,63.842a2.27078,2.27078,0,1,1-2.27087,2.27078,2.27081,2.27081,0,0,1,2.27087-2.27078m0-2a4.27078,4.27078,0,1,0,4.27075,4.27078,4.27566,4.27566,0,0,0-4.27075-4.27078h0Z"/><circle class="cls-8" cx="353.55251" cy="183.55678" r="3.271"/><path class="cls-9" d="M353.55239,181.28593a2.27078,2.27078,0,1,1-2.27087,2.27078,2.27081,2.27081,0,0,1,2.27087-2.27078m0-2a4.27078,4.27078,0,1,0,4.27075,4.27078,4.27566,4.27566,0,0,0-4.27075-4.27078h0Z"/><circle class="cls-8" cx="213.56766" cy="125.79068" r="33.91545"/><circle class="cls-8" cx="79.67995" cy="66.11281" r="3.27087"/><path class="cls-9" d="M79.68008,63.842a2.27078,2.27078,0,1,1-2.27075,2.27078A2.27074,2.27074,0,0,1,79.68008,63.842m0-2a4.27078,4.27078,0,1,0,4.27075,4.27078A4.27563,4.27563,0,0,0,79.68008,61.842h0Z"/><circle class="cls-8" cx="79.67995" cy="183.55678" r="3.271"/><path class="cls-9" d="M79.68008,181.28593a2.27078,2.27078,0,1,1-2.27075,2.27078,2.27074,2.27074,0,0,1,2.27075-2.27078m0-2a4.27078,4.27078,0,1,0,4.27075,4.27078,4.27563,4.27563,0,0,0-4.27075-4.27078h0Z"/><rect id="_Rectangle_3" data-name="&lt;Rectangle&gt;" class="cls-8" x="188.64313" y="2" width="50.26747" height="30.77171"/><g class="cls-10"><polyline class="cls-5" points="238.911 4.582 213.777 22.61 188.643 4.582"/><polyline class="cls-11" points="188.643 32.772 213.777 12.257 238.911 32.772"/><polyline class="cls-4" points="238.911 2.466 213.777 20.494 188.643 2.466"/></g><rect id="_Rectangle_4" data-name="&lt;Rectangle&gt;" class="cls-12" x="188.64313" y="2" width="50.26747" height="30.77171"/><polygon class="cls-9" points="176.726 24.147 159.584 25.226 164.952 36.653 176.726 24.147"/><polygon class="cls-9" points="309.652 77.603 308.686 60.455 297.224 65.748 309.652 77.603"/><line class="cls-7" x1="114.67895" y1="70.02877" x2="126.13662" y2="75.0632"/><line class="cls-7" x1="126.13662" y1="175.23104" x2="114.67895" y2="180.26547"/><line class="cls-7" x1="304.25136" y1="172.10622" x2="315.70903" y2="177.14065"/><line class="cls-7" x1="248.32954" y1="15.38251" x2="248.32954" y2="28.7825"/><circle class="cls-5" cx="353.55234" cy="124.33391" r="42.58592"/><circle class="cls-5" cx="79.16391" cy="124.33391" r="42.58592"/><circle id="_Ellipse_4" data-name="&lt;Ellipse&gt;" class="cls-9" cx="353.94363" cy="124.7468" r="34.02857"/><g class="cls-13"><path class="cls-11" d="M369.82623,124.12706H339.77174v-4.59872A14.94127,14.94127,0,0,1,354.713,104.58706H354.885a14.94127,14.94127,0,0,1,14.94127,14.94127v4.59872Z"/><path class="cls-14" d="M346.01358,133.24985h17.00989A10.58053,10.58053,0,0,1,373.604,143.83038v19.31239a0,0,0,0,1,0,0H335.433a0,0,0,0,1,0,0V143.83038A10.58053,10.58053,0,0,1,346.01358,133.24985Z"/><polygon class="cls-8" points="347.414 134.837 354.469 145.266 361.297 134.818 347.414 134.837"/><path class="cls-4" d="M363.49388,133.56122l-3.90249,2.95332a8.278,8.278,0,0,1-10.03383-.03277l-3.80588-2.9195a9.65771,9.65771,0,0,1-3.77956-7.66281v-8.60209a12.67573,12.67573,0,0,1,12.67573-12.67573h0a12.67573,12.67573,0,0,1,12.67573,12.67573v8.56281A9.65771,9.65771,0,0,1,363.49388,133.56122Z"/><polyline class="cls-4" points="365.326 147.302 365.326 163.143 373.604 163.143 373.604 147.302"/><polyline class="cls-4" points="335.433 147.302 335.433 163.143 343.711 163.143 343.711 147.302"/><circle class="cls-15" cx="349.6717" cy="123.80638" r="1.37967"/><circle class="cls-15" cx="359.32942" cy="123.80638" r="1.37967"/><polygon class="cls-9" points="355.302 123.937 356.175 129.283 354.206 129.283 354.795 129.283 352.826 129.283 353.76 123.937 355.302 123.937"/><path class="cls-9" d="M351.78213,120.39171c-0.01794.00064-.07776-0.0188-0.25452-0.0387-0.17139-.02155-0.42688-0.04419-0.73755-0.05307a9.41791,9.41791,0,0,0-2.29785.2077,7.45977,7.45977,0,0,0-2.20166.85471,4.83387,4.83387,0,0,0-.66125.45374l-0.24475.18936,0.18286-.24908a5.01834,5.01834,0,0,1,.52661-0.63693,8.10378,8.10378,0,0,1,2.043-1.54657,10.76818,10.76818,0,0,1,2.45044-.94818c0.35242-.09064.6532-0.1496,0.87109-0.18448,0.21277-.03674.37573-0.04736,0.35779-0.04819Z"/><path class="cls-9" d="M356.59743,118.40156c-0.01807.00079,0.1449,0.01144,0.35767,0.04819,0.218,0.03488.51868,0.09384,0.87109,0.18448a10.766,10.766,0,0,1,2.45044.94818,8.10684,8.10684,0,0,1,2.04309,1.54657,5.01552,5.01552,0,0,1,.52649.63693l0.18286,0.24908-0.24463-.18936a4.83639,4.83639,0,0,0-.66138-0.45374,7.45843,7.45843,0,0,0-2.20166-.85471,9.41693,9.41693,0,0,0-2.29785-.2077c-0.31067.00888-.566,0.03152-0.73755,0.05307-0.17664.0199-.23657,0.03934-0.25452,0.0387Z"/><path class="cls-15" d="M349.92012,131.439a5.3406,5.3406,0,0,0,8.99111,0h-8.99111Z"/><line class="cls-11" x1="343.71108" y1="144.3451" x2="343.71108" y2="149.57598"/><line class="cls-11" x1="365.32596" y1="144.3451" x2="365.32596" y2="149.57598"/><path class="cls-16" d="M367.32361,117.29736h0.01249a4.95784,4.95784,0,0,1,4.95784,4.95784v0a4.95784,4.95784,0,0,1-4.95784,4.95784h-0.01249a0,0,0,0,1,0,0v-9.91568a0,0,0,0,1,0,0Z"/><path class="cls-4" d="M367.32361,124.7468s0.56177,6.32373-7.48384,6.32373"/><path class="cls-17" d="M341.929,125.31706c0-3.53122-.39146-5.7393-1.10543-7.3526-3.33309-7.53147.8229-14.1479,7.48868-16.45894,3.634-1.25993,8.16742-1.06482,13.10463,3.20234,14.65187,1.09614,6.79914,7.709,5.86361,15.34885v0.60362c-4.44388-3.363-6.81214-11.12361-6.81214-11.12361-7.24142,8.19794-18.53936-.013-18.53936,13.02066v2.75968Z"/></g><circle id="_Ellipse_5" data-name="&lt;Ellipse&gt;" class="cls-12" cx="353.94363" cy="124.7468" r="34.02857"/><circle id="_Ellipse_6" data-name="&lt;Ellipse&gt;" class="cls-18" cx="79.16915" cy="124.28804" r="34.02857"/><g class="cls-19"><path class="cls-15" d="M79.33073,102.12149h0a16.53206,16.53206,0,0,1,16.53206,16.53206v20.9131a0,0,0,0,1,0,0H62.79866a0,0,0,0,1,0,0v-20.9131A16.53206,16.53206,0,0,1,79.33073,102.12149Z"/><path id="_Rectangle_5" data-name="&lt;Rectangle&gt;" class="cls-8" d="M73.15426,134.46818H86.33383a10.58053,10.58053,0,0,1,10.58053,10.58053v16.31273a0,0,0,0,1,0,0H62.57373a0,0,0,0,1,0,0V145.04871A10.58053,10.58053,0,0,1,73.15426,134.46818Z"/><g class="cls-20"><rect class="cls-21" x="68.00627" y="134.19372" width="23.10358" height="23.10358"/><circle class="cls-8" cx="79.75188" cy="137.24432" r="7.44727"/></g><path id="_Rectangle_6" data-name="&lt;Rectangle&gt;" class="cls-11" d="M73.15426,134.46818H86.33383a10.58053,10.58053,0,0,1,10.58053,10.58053v16.31273a0,0,0,0,1,0,0H62.57373a0,0,0,0,1,0,0V145.04871A10.58053,10.58053,0,0,1,73.15426,134.46818Z"/><path class="cls-4" d="M88.7194,134.425l-3.90249,2.95332a8.278,8.278,0,0,1-10.03383-.03277l-3.80588-2.9195a9.65771,9.65771,0,0,1-3.77956-7.66281v-8.60209a12.67573,12.67573,0,0,1,12.67573-12.67573h0a12.67573,12.67573,0,0,1,12.67573,12.67573V126.724A9.65771,9.65771,0,0,1,88.7194,134.425Z"/><circle class="cls-15" cx="74.89722" cy="124.67018" r="1.37967"/><circle class="cls-15" cx="84.55494" cy="124.67018" r="1.37967"/><path class="cls-9" d="M77.56948,121.52144c-0.02209-.00085-0.09473-0.02847-0.31091-0.06244a7.8059,7.8059,0,0,0-.90405-0.09528,8.83663,8.83663,0,0,0-2.81372.29019,6.96473,6.96473,0,0,0-1.44238.55411,4.83144,4.83144,0,0,0-.62671.35889,3.61935,3.61935,0,0,0-.5343.37689,5.60263,5.60263,0,0,0-.7406.65836l-0.27026.26965,0.20264-.32278a5.78868,5.78868,0,0,1,.59-0.8288,3.90606,3.90606,0,0,1,.45911-0.5126,5.34352,5.34352,0,0,1,.5697-0.52658,7.77789,7.77789,0,0,1,1.41638-.95355,10.18875,10.18875,0,0,1,3.0741-1.04727,9.63646,9.63646,0,0,1,1.093-.13388c0.26624-.01978.46753-0.011,0.44556-0.0141Z"/><path class="cls-9" d="M81.72585,119.53224c-0.022.00311,0.17932-.00568,0.44543,0.0141a9.6348,9.6348,0,0,1,1.09314.13388,10.18986,10.18986,0,0,1,3.0741,1.04727,7.77686,7.77686,0,0,1,1.41626.95355,5.34511,5.34511,0,0,1,.56982.52658,3.90606,3.90606,0,0,1,.45911.5126,5.78615,5.78615,0,0,1,.58984.8288l0.20276,0.32278-0.27026-.26965a5.597,5.597,0,0,0-.74072-0.65836,3.618,3.618,0,0,0-.53418-0.37689,4.83959,4.83959,0,0,0-.62671-0.35889,6.96473,6.96473,0,0,0-1.44238-.55411,8.837,8.837,0,0,0-2.81372-.29019,7.8028,7.8028,0,0,0-.90405.09528c-0.21619.034-.28882,0.06158-0.31091,0.06244Z"/><path class="cls-15" d="M84.41433,114.68587l1.26709,3.7738a29.34674,29.34674,0,0,1,6.69312,1.97107L91.31643,107.4001,79.16921,104.755,67.67556,107.4001v13.03064l0.28015-.11877A31.81332,31.81332,0,0,1,82.96,118.1017Z"/><path class="cls-15" d="M83.87441,131.77s-0.04834.15643-.15454,0.40637a1.71968,1.71968,0,0,1-.24121.43033,2.79979,2.79979,0,0,1-.42029.51279,3.27982,3.27982,0,0,1-.59143.50986,4.64723,4.64723,0,0,1-.76672.43308,4.78259,4.78259,0,0,1-.90552.27872,4.46568,4.46568,0,0,1-1.955.0015,4.7632,4.7632,0,0,1-.90613-0.27765,4.68047,4.68047,0,0,1-.76709-0.43283,3.25781,3.25781,0,0,1-.59155-0.51044,2.61086,2.61086,0,0,1-.41125-0.50668,1.98841,1.98841,0,0,1-.24719-0.4357,3.44246,3.44246,0,0,1-.15625-0.40933s0.166,0.03638.41821,0.10986c0.24707,0.07919.60266,0.16425,0.98755,0.25729a12.41115,12.41115,0,0,0,2.65125.31363,12.1888,12.1888,0,0,0,2.65259-.3114c0.38843-.09708.71509-0.15759,0.98474-0.25659C83.71389,131.80238,83.87441,131.77,83.87441,131.77Z"/><circle class="cls-18" cx="79.7716" cy="148.65929" r="1.1848"/><circle class="cls-18" cx="79.7716" cy="152.98518" r="1.1848"/><path class="cls-9" d="M81.67279,127.6911a1.74965,1.74965,0,1,1-3.49929,0"/></g><circle id="_Ellipse_7" data-name="&lt;Ellipse&gt;" class="cls-12" cx="79.16915" cy="124.28804" r="34.02857"/><circle class="cls-8" cx="96.33311" cy="35.5491" r="2.11611"/><circle class="cls-8" cx="213.89659" cy="122.47536" r="35.24616"/><path class="cls-22" d="M237.99662,139.85976l-6.35575,6.32569-5.36061-3.60454a22.46222,22.46222,0,0,1-5.66415,2.33614l-1.27057,6.327-8.96708-.02131-1.24054-6.333a22.4584,22.4584,0,0,1-5.65306-2.363l-5.37755,3.579-6.32569-6.35575,3.60454-5.36061a22.46222,22.46222,0,0,1-2.33614-5.66415l-6.327-1.27057,0.02131-8.96708,6.333-1.24054a22.46349,22.46349,0,0,1,2.363-5.65293l-3.579-5.37768,6.35568-6.32556,5.36068,3.60441a22.45788,22.45788,0,0,1,5.66415-2.33614l1.27057-6.327,8.96708,0.02131,1.24054,6.333a22.464,22.464,0,0,1,5.65306,2.363l5.37755-3.579,6.32562,6.35587-3.60447,5.36049a22.46222,22.46222,0,0,1,2.33614,5.66415l6.327,1.27057-0.02131,8.96708-6.333,1.24054a22.464,22.464,0,0,1-2.363,5.65306Z"/><circle class="cls-23" cx="214.92895" cy="123.03813" r="15.28057"/><circle class="cls-18" cx="214.92895" cy="123.03813" r="9.37588"/><path class="cls-24" d="M229.3173,122.88272a14.379,14.379,0,0,0-7.41074-12.57922v14.4254a0.88877,0.88877,0,0,1-.88883.88883H208.84017a0.88884,0.88884,0,0,1-.88883-0.88883V110.30355a14.3734,14.3734,0,0,0,.57548,25.45069v25.32688h12.54038V135.8814A14.376,14.376,0,0,0,229.3173,122.88272Z"/><line class="cls-25" x1="214.86124" y1="137.87387" x2="214.86124" y2="149.25442"/><path id="_Compound_Clipping_Path_2" data-name="&lt;Compound Clipping Path&gt;" class="cls-9" d="M159.73792,68.31669a76.59192,76.59192,0,1,0,108.31733,0A76.592,76.592,0,0,0,159.73792,68.31669ZM241.181,149.75982a38.58606,38.58606,0,1,1,0-54.56893A38.586,38.586,0,0,1,241.181,149.75982Z"/><g class="cls-26"><path class="cls-14" d="M213.89659,122.47536L143.24336,93.9296q11.824-29.26553,40.87875-41.59852Zm-70.14428,29.77448q12.333,29.05471,41.59852,40.87875l28.54576-70.65323Zm99.91875,40.3698q29.05471-12.333,40.87875-41.59852l-70.65323-28.54576Zm40.3698-99.91875q-12.333-29.05471-41.59852-40.87875l-28.54576,70.65323Z"/><circle class="cls-27" cx="213.89659" cy="122.47536" r="49.6129" transform="translate(-23.9543 187.11993) rotate(-45)"/></g><path id="_Compound_Clipping_Path_3" data-name="&lt;Compound Clipping Path&gt;" class="cls-12" d="M159.73792,68.31669a76.59192,76.59192,0,1,0,108.31733,0A76.592,76.592,0,0,0,159.73792,68.31669ZM241.181,149.75982a38.58606,38.58606,0,1,1,0-54.56893A38.586,38.586,0,0,1,241.181,149.75982Z"/><path class="cls-28" d="M172.8021,57.52c-5.51994,4.27443-14.03481,1.85466-18.11389,5.93374l-0.27376.27376c-3.94963,3.94963-1.6242,12.13565-5.34593,17.66528"/><circle class="cls-8" cx="157.28725" cy="65.86603" r="2.3623" transform="translate(-0.50594 130.51059) rotate(-45)"/><path class="cls-28" d="M278.54078,163.4345c-4.27443,5.51994-1.54347,14.17016-5.62254,18.24924l-0.27376.27376c-3.94963,3.94963-12.18487,1.51459-17.7145,5.23632"/><circle class="cls-8" cx="270.50592" cy="179.0847" r="2.3623" transform="translate(-47.40265 243.72926) rotate(-45)"/><path class="cls-28" d="M149.13812,163.86866c4.27443,5.51994,1.65774,13.736,5.73681,17.81508l0.27376,0.27376c3.94963,3.94963,12.18487,1.51459,17.7145,5.23632"/><circle class="cls-8" cx="157.28725" cy="179.0847" r="2.3623" transform="translate(-80.56363 163.67158) rotate(-45)"/><path class="cls-28" d="M254.85573,57.83117c5.51994,4.27443,14.17016,1.54347,18.24924,5.62254l0.27376,0.27376c3.94963,3.94963,1.21514,11.85725,4.93686,17.38688"/><circle class="cls-8" cx="270.50592" cy="65.86603" r="2.3623" transform="translate(32.65504 210.56828) rotate(-45)"/><g id="_0D9X8p.tif" data-name="0D9X8p.tif"><path class="cls-9" d="M424.88571,117.72707a0.94626,0.94626,0,0,1-.77966.99893,3.51606,3.51606,0,0,1-.58993.03661q-4.06825.00335-8.13651,0.00313c-0.19014.00016-.38027,0.02235-0.69151,0.04191,0.144,0.67448.27945,1.28254,0.402,1.89318a0.51081,0.51081,0,0,0,.61378.44192c2.17226-.01505,4.34469-0.008,6.51705-0.00657,0.14922,0.0001.29843,0.01435,0.456,0.02245a1.13572,1.13572,0,0,1-1.2327,1.03509c-1.68522.00448-3.37046,0.00112-5.05569,0.00246-0.13545.00011-.2709,0.012-0.41137,0.0187a0.51062,0.51062,0,0,0,.0208.12559,0.94964,0.94964,0,0,0,.093.12727,5.62538,5.62538,0,0,0,4.2674,2.06486c0.92079,0.02754,1.84308.00378,2.76469,0.00621,0.45958,0.00121.67949,0.17506,0.67913,0.52666a0.548,0.548,0,0,1-.67891.53075c-0.75045.00267-1.50142,0.01691-2.25111-.007a0.65407,0.65407,0,0,0-.63589.3483c-1.1094,1.68-2.233,3.35066-3.35056,5.0253-0.06858.10277-.12473,0.21383-0.20873,0.35923,0.17063,0.011.27433,0.02341,0.378,0.02344,2.21187,0.00066,4.42391.01739,6.63556-.00479a7.055,7.055,0,0,0,6.64317-4.81741q0.64559-1.88095,1.24876-3.77639a7.28192,7.28192,0,0,1,1.99243-3.171c0.07571-.0705.14346-0.14955,0.21076-0.22026a2.27614,2.27614,0,0,0-3.79308-.25239c-0.41707.54206-.80095,1.10968-1.19875,1.66651-0.5355.74956-1.06648,1.5024-1.60636,2.24879a0.53129,0.53129,0,0,1-.77913.20261,0.56258,0.56258,0,0,1-.09086-0.80774c0.04766-.07868.10208-0.15327,0.15328-0.22982,0.717-1.07189,1.44755-2.135,2.14767-3.21783a2.27927,2.27927,0,0,0-1.60614-3.56352,17.01242,17.01242,0,0,0-2.20649-.05611c-3.18614-.0047-6.3723.00217-9.55841-0.0078-0.34552-.00108-0.50435.07561-0.47421,0.459,0.03394,0.43181.004,0.86838,0.00867,1.3028,0.00705,0.65446-.107.62638,0.64618,0.62656q4.46323,0.00108,8.92647.0003h0.53118Z"/></g><circle class="cls-8" cx="431.84159" cy="119.29984" r="0.35559"/><line class="cls-5" x1="395.91831" y1="123.23525" x2="407.82141" y2="123.23525"/><circle class="cls-7" cx="14.22566" cy="125.08684" r="13.22566"/><line class="cls-7" x1="27.71584" y1="124.55781" x2="36.44478" y2="124.55781"/><path class="cls-9" d="M12.28616,126.17519c0-2.623,3.04883-3.08887,3.04883-4.7207a1.27467,1.27467,0,0,0-1.37891-1.146,3.28883,3.28883,0,0,0-1.84473.83545l-1.86523-2.27246a5.73094,5.73094,0,0,1,4.05957-1.6123c2.17578,0,4.52637,1.30127,4.52637,3.80664,0,3.18555-3.32227,3.65234-3.32227,5.38086v0.69922H12.28616v-0.9707Zm0.07715,2.34961h3.06934v2.91406H12.3633v-2.91406Z"/><circle class="cls-5" cx="213.17748" cy="231.50753" r="24.83333"/><circle id="_Ellipse_8" data-name="&lt;Ellipse&gt;" class="cls-9" cx="213.17748" cy="231.50752" r="18.23155"/><g class="cls-29"><path class="cls-30" d="M231.08,238.54494c0,1.98052-8.0889,3.58605-18.06705,3.58605s-18.06705-1.60553-18.06705-3.58605"/><path class="cls-11" d="M227.51436,220.83266c0,1.58271-6.46416,2.86576-14.4381,2.86576s-14.4381-1.283-14.4381-2.86576"/><path class="cls-11" d="M230.63066,229.73968c0,1.92433-7.85937,3.4843-17.55441,3.4843s-17.55441-1.56-17.55441-3.4843"/><line class="cls-11" x1="213.17748" y1="213.27597" x2="213.17748" y2="249.64497"/><path class="cls-27" d="M198.33245,249.73907c-5.81881,0-10.53589-8.16254-10.53589-18.23155s4.71708-18.23155,10.53589-18.23155h15.58728c-5.81881,0-10.53589,8.16254-10.53589,18.23155s4.71708,18.23155,10.53589,18.23155H198.33245Z"/></g><circle id="_Ellipse_9" data-name="&lt;Ellipse&gt;" class="cls-12" cx="213.17748" cy="231.50752" r="18.23155"/><path class="cls-11" d="M213.91973,249.73907c-5.81881,0-10.53589-8.16254-10.53589-18.23155s4.71708-18.23155,10.53589-18.23155"/><path class="cls-11" d="M213.711,249.7391c5.91129,0,10.70333-8.16254,10.70333-18.23155S219.62229,213.276,213.711,213.276"/></svg>